# xmcd CD database file
#
# Track frame offsets:
#	150
#	8271
#	31477
#	52870
#	73778
#	91618
#	114233
#	125904
#	150610
#
# Disc length: 2314 seconds
#
# Revision: 0
# Processed by: cddbd v1.5.2PL0 Copyright (c) Steve Scherf et al.
# Submitted via: CDex 1.70beta2
#
DISCID=62090809
DTITLE=蔡皓怡 - 航海日誌
DYEAR=2017
DGENRE=New Age
TTITLE0=月影
TTITLE1=航海日誌
TTITLE2=謎之森
TTITLE3=貓的漫遊
TTITLE4=搖籃夢
TTITLE5=星星的眼淚
TTITLE6=微光早晨
TTITLE7=古代人之村
TTITLE8=遠行
EXTD=YEAR: 2017
EXTT0=
EXTT1=
EXTT2=
EXTT3=
EXTT4=
EXTT5=
EXTT6=
EXTT7=
EXTT8=
PLAYORDER=
